<svg width="47" height="58" viewBox="0 0 47 58" fill="none" xmlns="http://www.w3.org/2000/svg">
<g clip-path="url(#clip0_381_1093)">
<path fill-rule="evenodd" clip-rule="evenodd" d="M23.5 58C23.5 58 47 44.6181 47 23.1182C47 10.3504 36.4787 0 23.5 0C10.5213 0 0 10.3504 0 23.1182C0 44.9648 23.5 58 23.5 58ZM22.5677 16.8975C19.3099 13.6926 14.0279 13.6926 10.7701 16.8975L10.5985 17.0663C7.34066 20.2712 7.34066 25.4673 10.5985 28.6722L23.3311 41.1982L36.2491 28.4901L36.3351 28.4055C39.5929 25.2006 39.5929 20.0045 36.3351 16.7996C33.0772 13.5947 27.7953 13.5947 24.5375 16.7996L24.3658 16.9685C24.0427 17.2864 23.7516 17.6239 23.4925 17.9771C23.2207 17.598 22.9125 17.2366 22.5677 16.8975Z" fill="white"/>
</g>
<defs>
<clipPath id="clip0_381_1093">
<rect width="47" height="58" fill="white"/>
</clipPath>
</defs>
</svg>
