<svg width="149" height="58" viewBox="0 0 149 58" fill="none" xmlns="http://www.w3.org/2000/svg">
<g filter="url(#filter0_i_198_59)">
<path fill-rule="evenodd" clip-rule="evenodd" d="M23.5 58C23.5 58 47 44.6181 47 23.1182C47 10.3504 36.4787 0 23.5 0C10.5213 0 0 10.3504 0 23.1182C0 44.9648 23.5 58 23.5 58ZM22.5677 16.8975C19.3099 13.6926 14.0279 13.6926 10.7701 16.8975L10.5985 17.0663C7.34066 20.2712 7.34066 25.4673 10.5985 28.6722L10.5985 28.6723L10.5984 28.6724L23.3311 41.1982L36.2491 28.4901L36.2491 28.49L36.3351 28.4055C39.5929 25.2006 39.5929 20.0045 36.3351 16.7996C33.0772 13.5947 27.7953 13.5947 24.5375 16.7996L24.3658 16.9685C24.0427 17.2864 23.7516 17.6239 23.4925 17.9771C23.2207 17.598 22.9125 17.2366 22.5677 16.8975Z" fill="#03A0E2"/>
</g>
<path d="M119.779 26.0234C119.632 26.0234 119.509 25.9748 119.41 25.8775C119.312 25.764 119.263 25.6424 119.263 25.5127C119.263 25.4316 119.271 25.3587 119.287 25.2938L125.143 9.65662C125.192 9.47828 125.291 9.32426 125.438 9.19455C125.586 9.06485 125.791 9 126.054 9H129.203C129.465 9 129.67 9.06485 129.818 9.19455C129.966 9.32426 130.064 9.47828 130.113 9.65662L135.969 25.2938C135.985 25.3587 135.994 25.4316 135.994 25.5127C135.994 25.6424 135.944 25.764 135.846 25.8775C135.748 25.9748 135.625 26.0234 135.477 26.0234H132.918C132.672 26.0234 132.492 25.9667 132.377 25.8532C132.262 25.7397 132.188 25.6343 132.155 25.537L131.097 22.8133H124.159L123.101 25.537C123.068 25.6343 122.994 25.7397 122.88 25.8532C122.765 25.9667 122.584 26.0234 122.338 26.0234H119.779ZM125.069 19.6761H130.162L127.628 12.6722L125.069 19.6761Z" fill="#515151"/>
<path d="M110.249 26.0234C110.069 26.0234 109.92 25.9667 109.805 25.8532C109.69 25.7397 109.633 25.5938 109.633 25.4154V12.3804H105.143C104.979 12.3804 104.839 12.3236 104.724 12.2101C104.609 12.0966 104.551 11.9588 104.551 11.7967V9.60798C104.551 9.42964 104.609 9.28372 104.724 9.17023C104.839 9.05674 104.979 9 105.143 9H118.069C118.25 9 118.398 9.05674 118.513 9.17023C118.628 9.28372 118.686 9.42964 118.686 9.60798V11.7967C118.686 11.9588 118.628 12.0966 118.513 12.2101C118.398 12.3236 118.25 12.3804 118.069 12.3804H113.604V25.4154C113.604 25.5938 113.547 25.7397 113.432 25.8532C113.316 25.9667 113.168 26.0234 112.988 26.0234H110.249Z" fill="#515151"/>
<path d="M90.4395 26.0234C90.2635 26.0234 90.1195 25.9667 90.0076 25.8532C89.8956 25.7397 89.8396 25.5938 89.8396 25.4154V9.60798C89.8396 9.42964 89.8956 9.28372 90.0076 9.17023C90.1195 9.05674 90.2635 9 90.4395 9H96.9904C98.2862 9 99.406 9.20266 100.35 9.60798C101.31 10.0133 102.054 10.6294 102.581 11.4562C103.125 12.2669 103.397 13.2802 103.397 14.4961C103.397 15.7283 103.125 16.7497 102.581 17.5603C102.054 18.3548 101.31 18.9465 100.35 19.3356C99.406 19.7247 98.2862 19.9193 96.9904 19.9193H93.7749V25.4154C93.7749 25.5938 93.7189 25.7397 93.607 25.8532C93.495 25.9667 93.351 26.0234 93.175 26.0234H90.4395ZM93.7029 16.9037H96.8704C97.6863 16.9037 98.3182 16.7011 98.7661 16.2957C99.23 15.8904 99.462 15.2824 99.462 14.4718C99.462 13.7584 99.254 13.1748 98.8381 12.7208C98.4382 12.2669 97.7823 12.0399 96.8704 12.0399H93.7029V16.9037Z" fill="#515151"/>
<path d="M71.5972 26.0234C71.4521 26.0234 71.3312 25.9748 71.2345 25.8775C71.1378 25.764 71.0894 25.6424 71.0894 25.5127C71.0894 25.4316 71.0975 25.3587 71.1136 25.2938L76.8685 9.65662C76.9168 9.47828 77.0135 9.32426 77.1586 9.19455C77.3037 9.06485 77.5052 9 77.7631 9H80.8581C81.1161 9 81.3176 9.06485 81.4626 9.19455C81.6077 9.32426 81.7044 9.47828 81.7528 9.65662L87.5076 25.2938C87.5238 25.3587 87.5318 25.4316 87.5318 25.5127C87.5318 25.6424 87.4835 25.764 87.3867 25.8775C87.29 25.9748 87.1691 26.0234 87.024 26.0234H84.5093C84.2675 26.0234 84.0902 25.9667 83.9774 25.8532C83.8645 25.7397 83.792 25.6343 83.7597 25.537L82.72 22.8133H75.9013L74.8615 25.537C74.8293 25.6343 74.7567 25.7397 74.6439 25.8532C74.5311 25.9667 74.3537 26.0234 74.1119 26.0234H71.5972ZM76.7959 19.6761H81.8012L79.3106 12.6722L76.7959 19.6761Z" fill="#515151"/>
<path d="M56.6945 26.0234C56.517 26.0234 56.3718 25.9667 56.2589 25.8532C56.1459 25.7397 56.0894 25.5938 56.0894 25.4154V9.60798C56.0894 9.42964 56.1459 9.28372 56.2589 9.17023C56.3718 9.05674 56.517 9 56.6945 9H59.3327C59.5101 9 59.6554 9.05674 59.7683 9.17023C59.8813 9.28372 59.9377 9.42964 59.9377 9.60798V15.6878H61.7288L65.4803 9.46206C65.5609 9.33236 65.6739 9.22698 65.8191 9.14592C65.9643 9.04864 66.1499 9 66.3758 9H69.3044C69.4657 9 69.5867 9.05674 69.6674 9.17023C69.7642 9.26751 69.8126 9.381 69.8126 9.5107C69.8126 9.60798 69.7804 9.70526 69.7158 9.80253L65.1898 17.1956L70.1757 25.1966C70.208 25.2614 70.2241 25.3506 70.2241 25.4641C70.2241 25.6262 70.1676 25.764 70.0547 25.8775C69.9579 25.9748 69.8368 26.0234 69.6916 26.0234H66.6662C66.4242 26.0234 66.2467 25.9748 66.1338 25.8775C66.0208 25.764 65.9321 25.6667 65.8675 25.5857L61.874 19.1411H59.9377V25.4154C59.9377 25.5938 59.8813 25.7397 59.7683 25.8532C59.6554 25.9667 59.5101 26.0234 59.3327 26.0234H56.6945Z" fill="#515151"/>
<path d="M134.621 48.5152C134.446 48.5152 134.303 48.4592 134.192 48.3471C134.08 48.2191 134.025 48.0751 134.025 47.915V32.3103C134.025 32.1343 134.08 31.9902 134.192 31.8782C134.319 31.7662 134.462 31.7102 134.621 31.7102H137.22C137.395 31.7102 137.538 31.7662 137.649 31.8782C137.761 31.9902 137.816 32.1343 137.816 32.3103V42.6814L145.137 32.1423C145.216 32.0302 145.311 31.9342 145.423 31.8542C145.55 31.7582 145.709 31.7102 145.9 31.7102H148.236C148.411 31.7102 148.554 31.7662 148.666 31.8782C148.777 31.9902 148.832 32.1343 148.832 32.3103V47.915C148.832 48.0911 148.777 48.2351 148.666 48.3471C148.554 48.4592 148.411 48.5152 148.236 48.5152H145.637C145.478 48.5152 145.335 48.4592 145.208 48.3471C145.097 48.2351 145.041 48.0911 145.041 47.915V37.856L137.721 48.0831C137.673 48.1791 137.594 48.2751 137.482 48.3712C137.371 48.4672 137.204 48.5152 136.982 48.5152H134.621Z" fill="#515151"/>
<path d="M116.974 48.5152C116.797 48.5152 116.652 48.4592 116.539 48.3471C116.426 48.2351 116.37 48.0911 116.37 47.915V32.3103C116.37 32.1343 116.426 31.9902 116.539 31.8782C116.652 31.7662 116.797 31.7102 116.974 31.7102H119.609C119.786 31.7102 119.931 31.7662 120.044 31.8782C120.157 31.9902 120.213 32.1343 120.213 32.3103V38.3121H126.764V32.3103C126.764 32.1343 126.821 31.9902 126.933 31.8782C127.046 31.7662 127.191 31.7102 127.369 31.7102H130.003C130.181 31.7102 130.326 31.7662 130.439 31.8782C130.551 31.9902 130.608 32.1343 130.608 32.3103V47.915C130.608 48.0911 130.551 48.2351 130.439 48.3471C130.326 48.4592 130.181 48.5152 130.003 48.5152H127.369C127.191 48.5152 127.046 48.4592 126.933 48.3471C126.821 48.2351 126.764 48.0911 126.764 47.915V41.7212H120.213V47.915C120.213 48.0911 120.157 48.2351 120.044 48.3471C119.931 48.4592 119.786 48.5152 119.609 48.5152H116.974Z" fill="#515151"/>
<path d="M106.63 48.8001C105.493 48.8001 104.506 48.6714 103.67 48.414C102.833 48.1566 102.146 47.8107 101.609 47.3764C101.072 46.942 100.662 46.4513 100.377 45.9043C100.093 45.3413 99.9196 44.7862 99.8564 44.2393C99.8406 44.0945 99.888 43.9738 99.9985 43.8773C100.109 43.7808 100.235 43.7325 100.377 43.7325H102.935C103.109 43.7325 103.251 43.7727 103.362 43.8532C103.472 43.9175 103.575 44.0301 103.67 44.191C103.843 44.6414 104.167 45.0115 104.641 45.301C105.114 45.5745 105.754 45.7113 106.559 45.7113C107.175 45.7113 107.712 45.6308 108.169 45.47C108.627 45.293 108.983 45.0436 109.235 44.7219C109.504 44.4001 109.638 44.014 109.638 43.5636C109.638 42.8557 109.377 42.3168 108.856 41.9468C108.351 41.5767 107.648 41.3917 106.748 41.3917H105.02C104.846 41.3917 104.704 41.3354 104.593 41.2228C104.483 41.0941 104.427 40.9413 104.427 40.7643V39.1234C104.427 38.9464 104.483 38.7936 104.593 38.6649C104.704 38.5362 104.846 38.4718 105.02 38.4718H106.677C107.419 38.4718 108.019 38.319 108.477 38.0133C108.951 37.6916 109.188 37.1848 109.188 36.493C109.188 36.1069 109.077 35.7691 108.856 35.4795C108.635 35.1738 108.335 34.9406 107.956 34.7797C107.577 34.6188 107.127 34.5384 106.606 34.5384C105.833 34.5384 105.209 34.6671 104.735 34.9245C104.262 35.1819 103.962 35.568 103.835 36.0828C103.772 36.2437 103.693 36.3563 103.598 36.4206C103.504 36.485 103.37 36.5172 103.196 36.5172H100.543C100.401 36.5172 100.275 36.4689 100.164 36.3724C100.07 36.2759 100.03 36.1552 100.046 36.0104C100.093 35.4312 100.251 34.8682 100.52 34.3212C100.804 33.7581 101.206 33.2675 101.727 32.8492C102.248 32.4148 102.92 32.0689 103.741 31.8115C104.562 31.5541 105.541 31.4254 106.677 31.4254C108.019 31.4254 109.156 31.6506 110.088 32.1011C111.035 32.5355 111.754 33.1146 112.243 33.8386C112.748 34.5464 113.001 35.3186 113.001 36.1552C113.001 36.5735 112.946 37.0078 112.835 37.4583C112.725 37.8927 112.535 38.3029 112.267 38.689C112.014 39.059 111.635 39.3888 111.13 39.6784C111.73 39.968 112.196 40.3299 112.527 40.7643C112.875 41.1987 113.127 41.6652 113.285 42.1639C113.443 42.6627 113.522 43.1775 113.522 43.7084C113.522 44.7219 113.246 45.6067 112.693 46.3628C112.14 47.119 111.343 47.7142 110.301 48.1486C109.275 48.5829 108.051 48.8001 106.63 48.8001Z" fill="#515151"/>
<path d="M82.7943 48.5152C82.6194 48.5152 82.4763 48.4592 82.3651 48.3471C82.2538 48.2191 82.1982 48.0751 82.1982 47.915V32.3103C82.1982 32.1343 82.2538 31.9902 82.3651 31.8782C82.4922 31.7662 82.6353 31.7102 82.7943 31.7102H85.3934C85.5682 31.7102 85.7113 31.7662 85.8226 31.8782C85.9338 31.9902 85.9895 32.1343 85.9895 32.3103V42.6814L93.3098 32.1423C93.3893 32.0302 93.4847 31.9342 93.596 31.8542C93.7232 31.7582 93.8821 31.7102 94.0729 31.7102H96.4097C96.5845 31.7102 96.7276 31.7662 96.8389 31.8782C96.9502 31.9902 97.0058 32.1343 97.0058 32.3103V47.915C97.0058 48.0911 96.9502 48.2351 96.8389 48.3471C96.7276 48.4592 96.5845 48.5152 96.4097 48.5152H93.8106C93.6516 48.5152 93.5085 48.4592 93.3814 48.3471C93.2701 48.2351 93.2145 48.0911 93.2145 47.915V37.856L85.8941 48.0831C85.8464 48.1791 85.7669 48.2751 85.6557 48.3712C85.5444 48.4672 85.3775 48.5152 85.1549 48.5152H82.7943Z" fill="#515151"/>
<path d="M56.5529 48.5152C56.3927 48.5152 56.2564 48.4672 56.1442 48.3712C56.0481 48.2591 56 48.1231 56 47.963C56 47.851 56.024 47.763 56.0721 47.6989L61.0004 39.8006L56.5048 32.5024C56.4407 32.4064 56.4087 32.3103 56.4087 32.2143C56.4087 32.0863 56.4488 31.9742 56.5289 31.8782C56.625 31.7662 56.7533 31.7102 56.9135 31.7102H59.7984C60.0388 31.7102 60.2231 31.7582 60.3513 31.8542C60.4955 31.9342 60.6077 32.0383 60.6878 32.1663L64.4141 38.3361H66.1209V32.3103C66.1209 32.1343 66.177 31.9902 66.2892 31.8782C66.4014 31.7662 66.5376 31.7102 66.6979 31.7102H69.2221C69.3824 31.7102 69.5186 31.7662 69.6308 31.8782C69.743 31.9902 69.7991 32.1343 69.7991 32.3103V38.3361H71.4579L75.2081 32.1663C75.2883 32.0383 75.4005 31.9342 75.5447 31.8542C75.689 31.7582 75.8733 31.7102 76.0976 31.7102H79.0065C79.1668 31.7102 79.287 31.7662 79.3671 31.8782C79.4633 31.9742 79.5113 32.0863 79.5113 32.2143C79.5113 32.3103 79.4793 32.4064 79.4152 32.5024L74.8956 39.8006L79.8479 47.6989C79.896 47.763 79.92 47.851 79.92 47.963C79.92 48.1231 79.8639 48.2591 79.7518 48.3712C79.6556 48.4672 79.5274 48.5152 79.3671 48.5152H76.3621C76.1217 48.5152 75.9454 48.4672 75.8332 48.3712C75.721 48.2591 75.6409 48.1631 75.5928 48.0831L71.6021 41.7212H69.7991V47.939C69.7991 48.0991 69.743 48.2351 69.6308 48.3471C69.5186 48.4592 69.3824 48.5152 69.2221 48.5152H66.6979C66.5376 48.5152 66.4014 48.4592 66.2892 48.3471C66.177 48.2351 66.1209 48.0911 66.1209 47.915V41.7212H64.2698L60.3272 48.0831C60.2631 48.1631 60.175 48.2591 60.0628 48.3712C59.9506 48.4672 59.7823 48.5152 59.558 48.5152H56.5529Z" fill="#515151"/>
<defs>
<filter id="filter0_i_198_59" x="0" y="0" width="47" height="63" filterUnits="userSpaceOnUse" color-interpolation-filters="sRGB">
<feFlood flood-opacity="0" result="BackgroundImageFix"/>
<feBlend mode="normal" in="SourceGraphic" in2="BackgroundImageFix" result="shape"/>
<feColorMatrix in="SourceAlpha" type="matrix" values="0 0 0 0 0 0 0 0 0 0 0 0 0 0 0 0 0 0 127 0" result="hardAlpha"/>
<feOffset dy="5"/>
<feGaussianBlur stdDeviation="2.75"/>
<feComposite in2="hardAlpha" operator="arithmetic" k2="-1" k3="1"/>
<feColorMatrix type="matrix" values="0 0 0 0 0 0 0 0 0 0 0 0 0 0 0 0 0 0 0.07 0"/>
<feBlend mode="normal" in2="shape" result="effect1_innerShadow_198_59"/>
</filter>
</defs>
</svg>
