<svg width="48" height="24" viewBox="0 0 48 24" fill="none" xmlns="http://www.w3.org/2000/svg">
<path d="M30.4121 2.38086C31.3781 3.16057 32.2565 3.84293 33.0469 4.42773C34.7889 5.7367 36.3701 6.82316 37.79 7.68652C40.7616 9.45494 44.1649 10.7987 48 11.7178L47.8027 12.7627C47.7881 12.8183 47.7734 12.9017 47.7588 13.0127L47.1875 15.833C42.8109 16.2647 38.9976 17.1694 35.748 18.5479C34.3281 19.1466 32.7615 19.9335 31.0488 20.9082L26.3057 23.791C26.2325 23.8328 26.1151 23.9026 25.9541 24L25.6914 19.7178L35.5938 15.833C36.1354 15.6102 36.7651 15.3869 37.4824 15.1641L39.0312 14.6973L31.7949 14.2246H12.9111L1.40527 14.9766C1.31726 14.962 0.848703 13.8763 0 11.7188L0.175781 11.5508H40.0928L39.7881 11.3838L25.7354 3.55078L27.4912 0L30.4121 2.38086Z" fill="white" fill-opacity="0.5"/>
</svg>
